<svg xmlns="http://www.w3.org/2000/svg" xmlns:svg="http://www.w3.org/2000/svg" version="1.1" id="svg10839" viewBox="7.84 111.24 198.56 44.13">
  <defs id="defs10836"/>
  <g id="layer1">
    <path style="fill:none;fill-opacity:1;stroke:#00c5f9;stroke-width:3;stroke-linecap:butt;stroke-linejoin:miter;stroke-miterlimit:4;stroke-dasharray:none;stroke-opacity:1" d="m 9.3428011,112.73945 4.9683999,6.34852 4.9684,8.55669 5.24442,-8.55669 4.9684,-1.10409 4.69238,9.38476 4.83039,-5.93448 5.10642,0.27602 4.9684,2.07017 4.69237,-2.76023 4.69238,10.48885 4.55437,-9.79879 4.69238,9.38476 4.9684,-1.2421 4.83039,-6.62454 9.93681,11.17891 5.24442,3.45027 4.69238,-7.72862 5.382429,-2.4842 9.38476,6.90055 4.55437,-5.10641 5.24442,3.17426 4.41636,-2.89823 4.83039,9.9368 9.93681,12.00697 5.10641,-2.4842 4.55436,-12.83504 4.8304,3.58829 5.24442,-3.31227 4.55437,11.73095 5.10641,-12.83504 5.38243,4.14034 4.55437,4.69238 4.27835,8.00464 5.24442,-0.41403 4.83039,1.93216 5.10642,-0.13801 4.9684,-5.65846" id="path10352"/>
  </g>
</svg>