<svg xmlns="http://www.w3.org/2000/svg" xmlns:svg="http://www.w3.org/2000/svg" version="1.1" id="svg6540" viewBox="2.65 151.29 204.47 39.55">
  <defs id="defs6537"/>
  <g id="layer1">
    <path style="fill:none;stroke:#000000;stroke-width:0.265;stroke-linecap:butt;stroke-linejoin:miter;stroke-miterlimit:4;stroke-dasharray:none;stroke-opacity:1" d="m 2.9802374,185.32875 c 1.9324788,0.75919 3.8645924,1.51823 5.4610502,1.56752 1.5964584,0.0493 2.8573474,-0.61102 3.8329514,-0.80307 0.975604,-0.19205 1.665646,0.084 2.401705,0.49805 0.736058,0.41408 1.518105,0.96611 2.449654,1.173 0.93155,0.2069 2.012616,0.0689 2.737039,-0.39108 0.724422,-0.45998 1.092445,-1.24203 1.598623,-1.69064 0.506178,-0.44861 1.150218,-0.56362 2.173867,-0.3105 1.02365,0.25311 2.426736,0.87415 3.473319,1.42623 1.046584,0.55209 1.736627,1.03511 2.403635,1.2075 0.667008,0.17239 1.311046,0.0344 1.955021,-0.29914 0.643975,-0.33353 1.288012,-0.86256 1.897525,-1.93207 0.609513,-1.06951 1.184549,-2.67961 1.497821,-3.60162 0.313271,-0.922 0.364753,-1.15591 5.286443,-1.19164 4.921691,-0.0357 14.712888,0.12692 19.608449,0.18399 4.895561,0.0571 4.895561,0.008 5.009408,-1.75651 0.113847,-1.76478 0.34155,-5.24538 0.455411,-6.96128 0.113861,-1.7159 0.113861,-1.6672 0.805238,-1.74865 0.691377,-0.0814 2.073855,-0.29288 3.415756,-0.008 1.341902,0.28475 2.643061,1.06544 4.139337,1.05718 1.496276,-0.008 3.187779,-0.80522 4.708652,-0.89457 1.520872,-0.0893 2.870822,0.5287 4.407775,0.52859 1.536953,-1.1e-4 3.260983,-0.61815 4.920448,-0.86597 1.659466,-0.24783 3.254129,-0.12549 4.281493,0.16583 1.027364,0.29131 1.487389,0.75133 2.717959,0.65916 1.23057,-0.0922 3.231691,-0.73621 5.462973,-0.52909 2.23128,0.20712 4.69244,1.26519 6.41747,1.51811 1.72503,0.25292 2.7141,-0.29911 4.34401,-0.87934 1.62991,-0.58023 3.90046,-1.18862 5.73439,-0.97964 1.83394,0.20897 3.23102,1.23502 4.80781,1.35756 1.57679,0.12254 3.33335,-0.65815 5.15511,-0.39777 1.82177,0.26038 3.70844,1.56153 4.55406,-1.43122 0.84562,-2.99276 0.65044,-10.27923 0.48783,-14.2153 -0.16262,-3.93606 -0.29273,-4.52158 1.59414,-4.22891 1.88687,0.29267 5.79034,1.46371 8.16488,1.7564 2.37453,0.2927 3.22028,-0.29282 4.65167,-0.8133 1.43139,-0.52048 3.44818,-0.97589 5.62775,-0.61795 2.17957,0.35794 4.52165,1.52898 7.02634,1.49633 2.5047,-0.0327 5.17207,-1.26874 8.29504,-1.36625 3.12297,-0.0975 6.70115,0.94342 8.53895,1.65918 1.8378,0.71575 1.93539,1.10612 3.17155,0.65051 1.23615,-0.45561 3.61076,-1.75677 6.63615,-1.91934 3.0254,-0.16257 6.70116,0.8133 8.79927,1.69171 2.0981,0.87842 2.61856,1.65911 3.51303,1.38245 0.89447,-0.27666 2.1631,-1.61035 3.77345,-2.39108 1.61035,-0.78073 3.56209,-1.00843 4.53819,5.32039 0.97611,6.32883 0.97677,19.21362 0.97744,32.09868" id="path7192"/>
    <path style="fill:none;stroke:#000000;stroke-width:0.264583px;stroke-linecap:butt;stroke-linejoin:miter;stroke-opacity:1" d="m 2.9797973,185.32876 c -0.030793,1.72503 -0.093171,5.1743 -0.093171,5.1743 H 206.89032" id="path7954"/>
    <path style="fill:#42b4e5;fill-opacity:0.92369479;stroke:#009000;stroke-width:1.04488;stroke-linecap:round;stroke-linejoin:bevel;stroke-miterlimit:4;stroke-dasharray:none" d="m 11.99719,710.96391 c 0,-4.59023 0.410432,-8.34587 0.912072,-8.34587 0.501639,0 2.966279,0.73196 5.476978,1.62658 10.774269,3.83913 17.361313,3.82412 29.772778,-0.0678 0.66742,-0.2093 4.65779,1.27589 8.867488,3.30041 6.38193,3.06919 8.489587,3.60241 12.681725,3.2084 4.203532,-0.39508 5.773714,-1.20467 9.578338,-4.93862 4.260362,-4.18123 4.833529,-4.42814 8.986403,-3.87112 2.439688,0.32722 8.827768,2.78946 14.195738,5.47163 8.35603,4.1752 10.31548,4.77245 13.62211,4.15212 5.66113,-1.06203 10.83192,-7.05031 14.57268,-16.87658 3.10154,-8.14712 3.11129,-8.15857 7.68251,-9.00876 2.51737,-0.46819 26.97366,-0.70688 54.34732,-0.53042 43.15539,0.2782 49.97294,0.11286 51.29516,-1.24401 1.10221,-1.1311 1.86528,-6.48073 2.75295,-19.29983 0.67543,-9.75424 1.37315,-17.88628 1.5505,-18.07121 1.34415,-1.40161 13.73196,-0.34787 20.93658,1.78092 l 8.42006,2.48792 9.83654,-2.14891 c 7.48033,-1.63416 10.96107,-1.92863 14.5311,-1.22931 6.86028,1.34383 15.24173,1.14138 22.95114,-0.55439 9.07432,-1.99599 18.35272,-1.93865 24.48644,0.15132 4.4516,1.51681 6.38186,1.56633 16.61678,0.42629 11.53125,-1.28444 11.63209,-1.27627 23.9086,1.93515 6.78067,1.77374 13.77395,3.225 15.5406,3.225 1.76667,0 7.7205,-1.45428 13.23073,-3.23173 14.6399,-4.72242 19.84755,-4.96496 30.48272,-1.41971 8.3788,2.79308 9.12527,2.86793 17.75837,1.78069 5.63015,-0.70906 10.52364,-0.78419 13.04042,-0.20022 7.46665,1.73247 11.50081,1.23942 13.80272,-1.68697 3.93216,-4.99894 4.77722,-12.78559 4.80491,-44.27405 l 0.0262,-29.73217 3.65132,0.28627 c 2.00822,0.15746 8.5806,1.48094 14.60527,2.94108 17.07746,4.13888 24.07882,4.37058 33.52706,1.10948 12.61044,-4.35254 17.26462,-4.46566 31.35818,-0.7622 6.71106,1.76352 14.22234,3.21624 16.69174,3.22828 2.4694,0.012 10.89823,-1.26238 18.73072,-2.83205 13.50374,-2.7062 14.7188,-2.78555 23.47277,-1.53287 5.07752,0.72658 13.22222,2.75448 18.09934,4.50643 12.87324,4.62432 13.98151,4.66167 23.49052,0.79165 16.02946,-6.52372 35.80209,-5.1651 54.5995,3.75165 4.21945,2.00155 8.28001,3.63917 9.02346,3.63917 0.74346,0 3.86355,-1.69107 6.93355,-3.75794 13.57151,-9.137 17.06668,-8.97605 21.22552,0.97745 4.30978,10.31477 6.72463,46.23056 6.76288,100.58367 l 0.0229,32.60106 H 396.42889 11.99719 Z" id="path8153" transform="scale(0.26458333)"/>
  </g>
</svg>